<mxfile host="Electron" agent="Mozilla/5.0 (Windows NT 10.0; Win64; x64) AppleWebKit/537.36 (KHTML, like Gecko) draw.io/26.0.4 Chrome/128.0.6613.186 Electron/32.2.5 Safari/537.36" version="26.0.4">
  <diagram name="Page-1" id="j1cGELcyKZ1SN7hPPT6H">
    <mxGraphModel dx="1854" dy="598" grid="1" gridSize="10" guides="1" tooltips="1" connect="1" arrows="1" fold="1" page="1" pageScale="1" pageWidth="850" pageHeight="1100" math="0" shadow="0">
      <root>
        <mxCell id="0" />
        <mxCell id="1" parent="0" />
        <mxCell id="kPocjmI_fxd54AzkwtQ3-2" value="Administrator" style="shape=umlActor;verticalLabelPosition=bottom;verticalAlign=top;html=1;outlineConnect=0;" parent="1" vertex="1">
          <mxGeometry x="462.5" y="980" width="30" height="60" as="geometry" />
        </mxCell>
        <mxCell id="kPocjmI_fxd54AzkwtQ3-3" value="" style="endArrow=none;html=1;rounded=0;exitX=0;exitY=0.3333333333333333;exitDx=0;exitDy=0;exitPerimeter=0;entryX=1;entryY=0.5;entryDx=0;entryDy=0;" parent="1" source="kPocjmI_fxd54AzkwtQ3-2" target="kPocjmI_fxd54AzkwtQ3-4" edge="1">
          <mxGeometry width="50" height="50" relative="1" as="geometry">
            <mxPoint x="160" y="940" as="sourcePoint" />
            <mxPoint x="400" y="930" as="targetPoint" />
            <Array as="points" />
          </mxGeometry>
        </mxCell>
        <mxCell id="kPocjmI_fxd54AzkwtQ3-4" value="Đăng nhập" style="ellipse;whiteSpace=wrap;html=1;" parent="1" vertex="1">
          <mxGeometry x="-210" y="1020" width="120" height="80" as="geometry" />
        </mxCell>
        <mxCell id="zXD2SMm_LBqsyfpl97Um-1" value="Quản lý sản phảm" style="ellipse;whiteSpace=wrap;html=1;" parent="1" vertex="1">
          <mxGeometry x="170" y="760" width="120" height="80" as="geometry" />
        </mxCell>
        <mxCell id="zXD2SMm_LBqsyfpl97Um-2" value="Quản lý tài khoản" style="ellipse;whiteSpace=wrap;html=1;" parent="1" vertex="1">
          <mxGeometry x="635" y="730" width="120" height="80" as="geometry" />
        </mxCell>
        <mxCell id="zXD2SMm_LBqsyfpl97Um-3" value="Quản lý hóa đơn" style="ellipse;whiteSpace=wrap;html=1;" parent="1" vertex="1">
          <mxGeometry x="172.5" y="1280" width="120" height="80" as="geometry" />
        </mxCell>
        <mxCell id="zXD2SMm_LBqsyfpl97Um-4" value="Quản lý kho hàng" style="ellipse;whiteSpace=wrap;html=1;" parent="1" vertex="1">
          <mxGeometry x="540" y="1160" width="120" height="80" as="geometry" />
        </mxCell>
        <mxCell id="zXD2SMm_LBqsyfpl97Um-5" value="Cập nhật thông tin tài khoản" style="ellipse;whiteSpace=wrap;html=1;" parent="1" vertex="1">
          <mxGeometry x="605" y="590" width="120" height="80" as="geometry" />
        </mxCell>
        <mxCell id="zXD2SMm_LBqsyfpl97Um-6" value="Tra cứu thông tin tài khoản" style="ellipse;whiteSpace=wrap;html=1;" parent="1" vertex="1">
          <mxGeometry x="765" y="610" width="120" height="80" as="geometry" />
        </mxCell>
        <mxCell id="zXD2SMm_LBqsyfpl97Um-10" value="" style="endArrow=none;html=1;rounded=0;entryX=0.424;entryY=0.982;entryDx=0;entryDy=0;entryPerimeter=0;exitX=0.75;exitY=0.1;exitDx=0;exitDy=0;exitPerimeter=0;" parent="1" source="kPocjmI_fxd54AzkwtQ3-2" target="zXD2SMm_LBqsyfpl97Um-2" edge="1">
          <mxGeometry width="50" height="50" relative="1" as="geometry">
            <mxPoint x="462.5" y="856" as="sourcePoint" />
            <mxPoint x="670" y="770" as="targetPoint" />
          </mxGeometry>
        </mxCell>
        <mxCell id="zXD2SMm_LBqsyfpl97Um-12" value="" style="endArrow=none;html=1;rounded=0;exitX=0.25;exitY=0.1;exitDx=0;exitDy=0;exitPerimeter=0;entryX=1;entryY=1;entryDx=0;entryDy=0;" parent="1" source="kPocjmI_fxd54AzkwtQ3-2" target="zXD2SMm_LBqsyfpl97Um-1" edge="1">
          <mxGeometry width="50" height="50" relative="1" as="geometry">
            <mxPoint x="209" y="890" as="sourcePoint" />
            <mxPoint x="300" y="790" as="targetPoint" />
          </mxGeometry>
        </mxCell>
        <mxCell id="zXD2SMm_LBqsyfpl97Um-14" value="" style="endArrow=none;html=1;rounded=0;entryX=1;entryY=1;entryDx=0;entryDy=0;entryPerimeter=0;" parent="1" source="zXD2SMm_LBqsyfpl97Um-4" target="kPocjmI_fxd54AzkwtQ3-2" edge="1">
          <mxGeometry width="50" height="50" relative="1" as="geometry">
            <mxPoint x="590" y="1077" as="sourcePoint" />
            <mxPoint x="731" y="950" as="targetPoint" />
          </mxGeometry>
        </mxCell>
        <mxCell id="zXD2SMm_LBqsyfpl97Um-15" value="" style="endArrow=none;html=1;rounded=0;entryX=0;entryY=1;entryDx=0;entryDy=0;entryPerimeter=0;exitX=0.5;exitY=0;exitDx=0;exitDy=0;" parent="1" source="zXD2SMm_LBqsyfpl97Um-3" target="kPocjmI_fxd54AzkwtQ3-2" edge="1">
          <mxGeometry width="50" height="50" relative="1" as="geometry">
            <mxPoint x="300" y="1060" as="sourcePoint" />
            <mxPoint x="425" y="950" as="targetPoint" />
          </mxGeometry>
        </mxCell>
        <mxCell id="zXD2SMm_LBqsyfpl97Um-16" value="Mở khóa tài khoản" style="ellipse;whiteSpace=wrap;html=1;" parent="1" vertex="1">
          <mxGeometry x="865" y="700" width="120" height="80" as="geometry" />
        </mxCell>
        <mxCell id="zXD2SMm_LBqsyfpl97Um-17" value="Khóa tài khoản" style="ellipse;whiteSpace=wrap;html=1;" parent="1" vertex="1">
          <mxGeometry x="460" y="640" width="120" height="80" as="geometry" />
        </mxCell>
        <mxCell id="zXD2SMm_LBqsyfpl97Um-24" value="Cập nhật thông tin sản phẩm" style="ellipse;whiteSpace=wrap;html=1;" parent="1" vertex="1">
          <mxGeometry x="-20" y="690" width="120" height="80" as="geometry" />
        </mxCell>
        <mxCell id="zXD2SMm_LBqsyfpl97Um-25" value="Xóa sản phẩm" style="ellipse;whiteSpace=wrap;html=1;" parent="1" vertex="1">
          <mxGeometry x="130" y="630" width="120" height="80" as="geometry" />
        </mxCell>
        <mxCell id="zXD2SMm_LBqsyfpl97Um-26" value="Tìm kiếm và lọc sản phẩm" style="ellipse;whiteSpace=wrap;html=1;" parent="1" vertex="1">
          <mxGeometry x="290" y="640" width="120" height="80" as="geometry" />
        </mxCell>
        <mxCell id="zXD2SMm_LBqsyfpl97Um-27" value="Thêm sản phẩm" style="ellipse;whiteSpace=wrap;html=1;" parent="1" vertex="1">
          <mxGeometry x="-50" y="800" width="120" height="80" as="geometry" />
        </mxCell>
        <mxCell id="zXD2SMm_LBqsyfpl97Um-33" value="&amp;lt;extend&amp;gt;" style="html=1;labelBackgroundColor=#ffffff;startArrow=none;startFill=0;startSize=6;endArrow=classic;endFill=1;endSize=6;jettySize=auto;orthogonalLoop=1;strokeWidth=1;dashed=1;fontSize=14;rounded=0;exitX=1;exitY=0.5;exitDx=0;exitDy=0;" parent="1" source="zXD2SMm_LBqsyfpl97Um-27" edge="1">
          <mxGeometry x="-0.0194" y="1" width="60" height="60" relative="1" as="geometry">
            <mxPoint x="121" y="860" as="sourcePoint" />
            <mxPoint x="184.5625620478038" y="825.329511610289" as="targetPoint" />
            <mxPoint as="offset" />
          </mxGeometry>
        </mxCell>
        <mxCell id="zXD2SMm_LBqsyfpl97Um-34" value="&amp;lt;extend&amp;gt;" style="html=1;labelBackgroundColor=#ffffff;startArrow=none;startFill=0;startSize=6;endArrow=classic;endFill=1;endSize=6;jettySize=auto;orthogonalLoop=1;strokeWidth=1;dashed=1;fontSize=14;rounded=0;entryX=0.114;entryY=0.212;entryDx=0;entryDy=0;entryPerimeter=0;exitX=1;exitY=1;exitDx=0;exitDy=0;" parent="1" source="zXD2SMm_LBqsyfpl97Um-24" target="zXD2SMm_LBqsyfpl97Um-1" edge="1">
          <mxGeometry width="60" height="60" relative="1" as="geometry">
            <mxPoint x="100" y="790" as="sourcePoint" />
            <mxPoint x="160" y="730" as="targetPoint" />
          </mxGeometry>
        </mxCell>
        <mxCell id="zXD2SMm_LBqsyfpl97Um-35" value="&amp;lt;extend&amp;gt;" style="html=1;labelBackgroundColor=#ffffff;startArrow=none;startFill=0;startSize=6;endArrow=classic;endFill=1;endSize=6;jettySize=auto;orthogonalLoop=1;strokeWidth=1;dashed=1;fontSize=14;rounded=0;entryX=0.5;entryY=0;entryDx=0;entryDy=0;exitX=0.5;exitY=1;exitDx=0;exitDy=0;" parent="1" source="zXD2SMm_LBqsyfpl97Um-25" target="zXD2SMm_LBqsyfpl97Um-1" edge="1">
          <mxGeometry width="60" height="60" relative="1" as="geometry">
            <mxPoint x="200" y="760" as="sourcePoint" />
            <mxPoint x="260" y="700" as="targetPoint" />
          </mxGeometry>
        </mxCell>
        <mxCell id="zXD2SMm_LBqsyfpl97Um-36" value="&amp;lt;extend&amp;gt;" style="html=1;labelBackgroundColor=#ffffff;startArrow=none;startFill=0;startSize=6;endArrow=classic;endFill=1;endSize=6;jettySize=auto;orthogonalLoop=1;strokeWidth=1;dashed=1;fontSize=14;rounded=0;exitX=0.5;exitY=1;exitDx=0;exitDy=0;entryX=1;entryY=0;entryDx=0;entryDy=0;" parent="1" source="zXD2SMm_LBqsyfpl97Um-26" target="zXD2SMm_LBqsyfpl97Um-1" edge="1">
          <mxGeometry width="60" height="60" relative="1" as="geometry">
            <mxPoint x="340" y="800" as="sourcePoint" />
            <mxPoint x="400" y="740" as="targetPoint" />
          </mxGeometry>
        </mxCell>
        <mxCell id="zXD2SMm_LBqsyfpl97Um-37" value="&amp;lt;extend&amp;gt;" style="html=1;labelBackgroundColor=#ffffff;startArrow=none;startFill=0;startSize=6;endArrow=classic;endFill=1;endSize=6;jettySize=auto;orthogonalLoop=1;strokeWidth=1;dashed=1;fontSize=14;rounded=0;entryX=0;entryY=0;entryDx=0;entryDy=0;exitX=1;exitY=1;exitDx=0;exitDy=0;" parent="1" source="zXD2SMm_LBqsyfpl97Um-17" target="zXD2SMm_LBqsyfpl97Um-2" edge="1">
          <mxGeometry width="60" height="60" relative="1" as="geometry">
            <mxPoint x="555" y="780" as="sourcePoint" />
            <mxPoint x="615" y="720" as="targetPoint" />
          </mxGeometry>
        </mxCell>
        <mxCell id="zXD2SMm_LBqsyfpl97Um-38" value="&amp;lt;extend&amp;gt;" style="html=1;labelBackgroundColor=#ffffff;startArrow=none;startFill=0;startSize=6;endArrow=classic;endFill=1;endSize=6;jettySize=auto;orthogonalLoop=1;strokeWidth=1;dashed=1;fontSize=14;rounded=0;exitX=0.5;exitY=1;exitDx=0;exitDy=0;entryX=0.5;entryY=0;entryDx=0;entryDy=0;" parent="1" source="zXD2SMm_LBqsyfpl97Um-5" target="zXD2SMm_LBqsyfpl97Um-2" edge="1">
          <mxGeometry width="60" height="60" relative="1" as="geometry">
            <mxPoint x="675" y="720" as="sourcePoint" />
            <mxPoint x="735" y="660" as="targetPoint" />
          </mxGeometry>
        </mxCell>
        <mxCell id="zXD2SMm_LBqsyfpl97Um-39" value="&amp;lt;extend&amp;gt;" style="html=1;labelBackgroundColor=#ffffff;startArrow=none;startFill=0;startSize=6;endArrow=classic;endFill=1;endSize=6;jettySize=auto;orthogonalLoop=1;strokeWidth=1;dashed=1;fontSize=14;rounded=0;entryX=1;entryY=0;entryDx=0;entryDy=0;exitX=0;exitY=1;exitDx=0;exitDy=0;" parent="1" source="zXD2SMm_LBqsyfpl97Um-6" target="zXD2SMm_LBqsyfpl97Um-2" edge="1">
          <mxGeometry width="60" height="60" relative="1" as="geometry">
            <mxPoint x="745" y="700" as="sourcePoint" />
            <mxPoint x="795" y="690" as="targetPoint" />
          </mxGeometry>
        </mxCell>
        <mxCell id="zXD2SMm_LBqsyfpl97Um-40" value="&amp;lt;extend&amp;gt;" style="html=1;labelBackgroundColor=#ffffff;startArrow=none;startFill=0;startSize=6;endArrow=classic;endFill=1;endSize=6;jettySize=auto;orthogonalLoop=1;strokeWidth=1;dashed=1;fontSize=14;rounded=0;entryX=1;entryY=0.5;entryDx=0;entryDy=0;" parent="1" source="zXD2SMm_LBqsyfpl97Um-16" target="zXD2SMm_LBqsyfpl97Um-2" edge="1">
          <mxGeometry width="60" height="60" relative="1" as="geometry">
            <mxPoint x="745" y="850" as="sourcePoint" />
            <mxPoint x="805" y="790" as="targetPoint" />
          </mxGeometry>
        </mxCell>
        <mxCell id="zXD2SMm_LBqsyfpl97Um-41" value="Xem thông tin sản phẩm" style="ellipse;whiteSpace=wrap;html=1;" parent="1" vertex="1">
          <mxGeometry x="372.5" y="730" width="120" height="80" as="geometry" />
        </mxCell>
        <mxCell id="zXD2SMm_LBqsyfpl97Um-42" value="&amp;lt;extend&amp;gt;" style="html=1;labelBackgroundColor=#ffffff;startArrow=none;startFill=0;startSize=6;endArrow=classic;endFill=1;endSize=6;jettySize=auto;orthogonalLoop=1;strokeWidth=1;dashed=1;fontSize=14;rounded=0;entryX=1;entryY=0.5;entryDx=0;entryDy=0;exitX=0;exitY=0.5;exitDx=0;exitDy=0;" parent="1" source="zXD2SMm_LBqsyfpl97Um-41" target="zXD2SMm_LBqsyfpl97Um-1" edge="1">
          <mxGeometry width="60" height="60" relative="1" as="geometry">
            <mxPoint x="160" y="890" as="sourcePoint" />
            <mxPoint x="220" y="830" as="targetPoint" />
          </mxGeometry>
        </mxCell>
        <mxCell id="zXD2SMm_LBqsyfpl97Um-43" value="Tạo mới hóa đơn" style="ellipse;whiteSpace=wrap;html=1;" parent="1" vertex="1">
          <mxGeometry x="82.5" y="1150" width="120" height="80" as="geometry" />
        </mxCell>
        <mxCell id="zXD2SMm_LBqsyfpl97Um-44" value="Xuất hóa đơn" style="ellipse;whiteSpace=wrap;html=1;" parent="1" vertex="1">
          <mxGeometry x="377.5" y="1320" width="120" height="80" as="geometry" />
        </mxCell>
        <mxCell id="zXD2SMm_LBqsyfpl97Um-45" value="Tra cứu hóa đơn" style="ellipse;whiteSpace=wrap;html=1;" parent="1" vertex="1">
          <mxGeometry x="42.5" y="1410" width="120" height="80" as="geometry" />
        </mxCell>
        <mxCell id="zXD2SMm_LBqsyfpl97Um-46" value="Cập nhật hóa đơn" style="ellipse;whiteSpace=wrap;html=1;" parent="1" vertex="1">
          <mxGeometry x="252.5" y="1430" width="120" height="80" as="geometry" />
        </mxCell>
        <mxCell id="zXD2SMm_LBqsyfpl97Um-47" value="Thống kê hóa đơn, doanh thu" style="ellipse;whiteSpace=wrap;html=1;" parent="1" vertex="1">
          <mxGeometry x="342.5" y="1180" width="120" height="80" as="geometry" />
        </mxCell>
        <mxCell id="zXD2SMm_LBqsyfpl97Um-48" value="Hủy hóa đơn" style="ellipse;whiteSpace=wrap;html=1;" parent="1" vertex="1">
          <mxGeometry x="-47.5" y="1260" width="120" height="80" as="geometry" />
        </mxCell>
        <mxCell id="zXD2SMm_LBqsyfpl97Um-55" value="&amp;lt;extend&amp;gt;" style="html=1;labelBackgroundColor=#ffffff;startArrow=none;startFill=0;startSize=6;endArrow=classic;endFill=1;endSize=6;jettySize=auto;orthogonalLoop=1;strokeWidth=1;dashed=1;fontSize=14;rounded=0;exitX=0.5;exitY=1;exitDx=0;exitDy=0;entryX=0;entryY=0;entryDx=0;entryDy=0;" parent="1" source="zXD2SMm_LBqsyfpl97Um-43" target="zXD2SMm_LBqsyfpl97Um-3" edge="1">
          <mxGeometry width="60" height="60" relative="1" as="geometry">
            <mxPoint x="142.5" y="1370" as="sourcePoint" />
            <mxPoint x="202.5" y="1310" as="targetPoint" />
          </mxGeometry>
        </mxCell>
        <mxCell id="zXD2SMm_LBqsyfpl97Um-56" value="&amp;lt;extend&amp;gt;" style="html=1;labelBackgroundColor=#ffffff;startArrow=none;startFill=0;startSize=6;endArrow=classic;endFill=1;endSize=6;jettySize=auto;orthogonalLoop=1;strokeWidth=1;dashed=1;fontSize=14;rounded=0;exitX=1;exitY=0.5;exitDx=0;exitDy=0;entryX=0;entryY=0.5;entryDx=0;entryDy=0;" parent="1" source="zXD2SMm_LBqsyfpl97Um-48" target="zXD2SMm_LBqsyfpl97Um-3" edge="1">
          <mxGeometry width="60" height="60" relative="1" as="geometry">
            <mxPoint x="112.5" y="1440" as="sourcePoint" />
            <mxPoint x="172.5" y="1380" as="targetPoint" />
          </mxGeometry>
        </mxCell>
        <mxCell id="zXD2SMm_LBqsyfpl97Um-57" value="&amp;lt;extend&amp;gt;" style="html=1;labelBackgroundColor=#ffffff;startArrow=none;startFill=0;startSize=6;endArrow=classic;endFill=1;endSize=6;jettySize=auto;orthogonalLoop=1;strokeWidth=1;dashed=1;fontSize=14;rounded=0;entryX=0;entryY=1;entryDx=0;entryDy=0;exitX=1;exitY=0;exitDx=0;exitDy=0;" parent="1" source="zXD2SMm_LBqsyfpl97Um-45" target="zXD2SMm_LBqsyfpl97Um-3" edge="1">
          <mxGeometry width="60" height="60" relative="1" as="geometry">
            <mxPoint x="102.5" y="1540" as="sourcePoint" />
            <mxPoint x="162.5" y="1480" as="targetPoint" />
          </mxGeometry>
        </mxCell>
        <mxCell id="zXD2SMm_LBqsyfpl97Um-58" value="&amp;lt;extend&amp;gt;" style="html=1;labelBackgroundColor=#ffffff;startArrow=none;startFill=0;startSize=6;endArrow=classic;endFill=1;endSize=6;jettySize=auto;orthogonalLoop=1;strokeWidth=1;dashed=1;fontSize=14;rounded=0;entryX=0.5;entryY=1;entryDx=0;entryDy=0;exitX=0.5;exitY=0;exitDx=0;exitDy=0;" parent="1" source="zXD2SMm_LBqsyfpl97Um-46" target="zXD2SMm_LBqsyfpl97Um-3" edge="1">
          <mxGeometry width="60" height="60" relative="1" as="geometry">
            <mxPoint x="212.5" y="1510" as="sourcePoint" />
            <mxPoint x="272.5" y="1450" as="targetPoint" />
          </mxGeometry>
        </mxCell>
        <mxCell id="zXD2SMm_LBqsyfpl97Um-59" value="&amp;lt;extend&amp;gt;" style="html=1;labelBackgroundColor=#ffffff;startArrow=none;startFill=0;startSize=6;endArrow=classic;endFill=1;endSize=6;jettySize=auto;orthogonalLoop=1;strokeWidth=1;dashed=1;fontSize=14;rounded=0;entryX=1;entryY=1;entryDx=0;entryDy=0;exitX=0;exitY=0.5;exitDx=0;exitDy=0;" parent="1" source="zXD2SMm_LBqsyfpl97Um-44" target="zXD2SMm_LBqsyfpl97Um-3" edge="1">
          <mxGeometry width="60" height="60" relative="1" as="geometry">
            <mxPoint x="307.5" y="1500" as="sourcePoint" />
            <mxPoint x="367.5" y="1440" as="targetPoint" />
          </mxGeometry>
        </mxCell>
        <mxCell id="zXD2SMm_LBqsyfpl97Um-60" value="&amp;lt;extend&amp;gt;" style="html=1;labelBackgroundColor=#ffffff;startArrow=none;startFill=0;startSize=6;endArrow=classic;endFill=1;endSize=6;jettySize=auto;orthogonalLoop=1;strokeWidth=1;dashed=1;fontSize=14;rounded=0;exitX=0;exitY=1;exitDx=0;exitDy=0;" parent="1" source="zXD2SMm_LBqsyfpl97Um-47" target="zXD2SMm_LBqsyfpl97Um-3" edge="1">
          <mxGeometry width="60" height="60" relative="1" as="geometry">
            <mxPoint x="252.5" y="1450" as="sourcePoint" />
            <mxPoint x="302.5" y="1330" as="targetPoint" />
          </mxGeometry>
        </mxCell>
        <mxCell id="zXD2SMm_LBqsyfpl97Um-63" value="Quản lý xuất kho" style="ellipse;whiteSpace=wrap;html=1;" parent="1" vertex="1">
          <mxGeometry x="745" y="1290" width="120" height="80" as="geometry" />
        </mxCell>
        <mxCell id="zXD2SMm_LBqsyfpl97Um-64" value="Quản lý nhập kho" style="ellipse;whiteSpace=wrap;html=1;" parent="1" vertex="1">
          <mxGeometry x="790" y="1130" width="120" height="80" as="geometry" />
        </mxCell>
        <mxCell id="zXD2SMm_LBqsyfpl97Um-69" value="&amp;lt;extend&amp;gt;" style="html=1;labelBackgroundColor=#ffffff;startArrow=none;startFill=0;startSize=6;endArrow=classic;endFill=1;endSize=6;jettySize=auto;orthogonalLoop=1;strokeWidth=1;dashed=1;fontSize=14;rounded=0;exitX=0;exitY=0;exitDx=0;exitDy=0;entryX=1;entryY=1;entryDx=0;entryDy=0;" parent="1" source="zXD2SMm_LBqsyfpl97Um-63" target="zXD2SMm_LBqsyfpl97Um-4" edge="1">
          <mxGeometry width="60" height="60" relative="1" as="geometry">
            <mxPoint x="740" y="1204" as="sourcePoint" />
            <mxPoint x="810" y="1254" as="targetPoint" />
          </mxGeometry>
        </mxCell>
        <mxCell id="zXD2SMm_LBqsyfpl97Um-70" value="&amp;lt;extend&amp;gt;" style="html=1;labelBackgroundColor=#ffffff;startArrow=none;startFill=0;startSize=6;endArrow=classic;endFill=1;endSize=6;jettySize=auto;orthogonalLoop=1;strokeWidth=1;dashed=1;fontSize=14;rounded=0;entryX=0.918;entryY=0.289;entryDx=0;entryDy=0;entryPerimeter=0;" parent="1" source="zXD2SMm_LBqsyfpl97Um-64" target="zXD2SMm_LBqsyfpl97Um-4" edge="1">
          <mxGeometry width="60" height="60" relative="1" as="geometry">
            <mxPoint x="750" y="1124" as="sourcePoint" />
            <mxPoint x="810" y="1064" as="targetPoint" />
          </mxGeometry>
        </mxCell>
        <mxCell id="HAnDy_ZdzhN_IxBXXIQJ-1" value="Quản lý đơn đặt hàng" style="ellipse;whiteSpace=wrap;html=1;" parent="1" vertex="1">
          <mxGeometry x="650" y="920" width="120" height="80" as="geometry" />
        </mxCell>
        <mxCell id="HAnDy_ZdzhN_IxBXXIQJ-2" value="" style="endArrow=none;html=1;rounded=0;exitX=0.75;exitY=0.1;exitDx=0;exitDy=0;exitPerimeter=0;" parent="1" source="kPocjmI_fxd54AzkwtQ3-2" target="HAnDy_ZdzhN_IxBXXIQJ-1" edge="1">
          <mxGeometry width="50" height="50" relative="1" as="geometry">
            <mxPoint x="650" y="980" as="sourcePoint" />
            <mxPoint x="700" y="930" as="targetPoint" />
          </mxGeometry>
        </mxCell>
        <mxCell id="HAnDy_ZdzhN_IxBXXIQJ-3" value="Thông báo đơn hàng mới" style="ellipse;whiteSpace=wrap;html=1;" parent="1" vertex="1">
          <mxGeometry x="890" y="830" width="120" height="80" as="geometry" />
        </mxCell>
        <mxCell id="HAnDy_ZdzhN_IxBXXIQJ-5" value="Cập nhật trạng thái đơn hàng" style="ellipse;whiteSpace=wrap;html=1;" parent="1" vertex="1">
          <mxGeometry x="960" y="930" width="120" height="80" as="geometry" />
        </mxCell>
        <mxCell id="HAnDy_ZdzhN_IxBXXIQJ-6" value="Hiển thị danh sách đơn hàng cần xử lý" style="ellipse;whiteSpace=wrap;html=1;" parent="1" vertex="1">
          <mxGeometry x="950" y="1030" width="120" height="80" as="geometry" />
        </mxCell>
        <mxCell id="HAnDy_ZdzhN_IxBXXIQJ-13" value="&amp;lt;extend&amp;gt;" style="html=1;labelBackgroundColor=#ffffff;startArrow=none;startFill=0;startSize=6;endArrow=classic;endFill=1;endSize=6;jettySize=auto;orthogonalLoop=1;strokeWidth=1;dashed=1;fontSize=14;rounded=0;entryX=1;entryY=1;entryDx=0;entryDy=0;" parent="1" source="HAnDy_ZdzhN_IxBXXIQJ-6" target="HAnDy_ZdzhN_IxBXXIQJ-1" edge="1">
          <mxGeometry x="0.0052" width="60" height="60" relative="1" as="geometry">
            <mxPoint x="900" y="1080" as="sourcePoint" />
            <mxPoint x="700" y="990" as="targetPoint" />
            <mxPoint as="offset" />
          </mxGeometry>
        </mxCell>
        <mxCell id="HAnDy_ZdzhN_IxBXXIQJ-14" value="&amp;lt;extend&amp;gt;" style="html=1;labelBackgroundColor=#ffffff;startArrow=none;startFill=0;startSize=6;endArrow=classic;endFill=1;endSize=6;jettySize=auto;orthogonalLoop=1;strokeWidth=1;dashed=1;fontSize=14;rounded=0;entryX=1;entryY=0.5;entryDx=0;entryDy=0;exitX=0;exitY=0.5;exitDx=0;exitDy=0;" parent="1" source="HAnDy_ZdzhN_IxBXXIQJ-5" target="HAnDy_ZdzhN_IxBXXIQJ-1" edge="1">
          <mxGeometry width="60" height="60" relative="1" as="geometry">
            <mxPoint x="960.440702020223" y="1005.160807039143" as="sourcePoint" />
            <mxPoint x="870" y="900" as="targetPoint" />
          </mxGeometry>
        </mxCell>
        <mxCell id="HAnDy_ZdzhN_IxBXXIQJ-16" value="&amp;lt;extend&amp;gt;" style="html=1;labelBackgroundColor=#ffffff;startArrow=none;startFill=0;startSize=6;endArrow=classic;endFill=1;endSize=6;jettySize=auto;orthogonalLoop=1;strokeWidth=1;dashed=1;fontSize=14;rounded=0;entryX=1;entryY=0;entryDx=0;entryDy=0;" parent="1" source="HAnDy_ZdzhN_IxBXXIQJ-3" target="HAnDy_ZdzhN_IxBXXIQJ-1" edge="1">
          <mxGeometry width="60" height="60" relative="1" as="geometry">
            <mxPoint x="980" y="940" as="sourcePoint" />
            <mxPoint x="1040" y="880" as="targetPoint" />
          </mxGeometry>
        </mxCell>
        <mxCell id="HAnDy_ZdzhN_IxBXXIQJ-18" value="Đăng xuất" style="ellipse;whiteSpace=wrap;html=1;" parent="1" vertex="1">
          <mxGeometry x="-320" y="1170" width="120" height="80" as="geometry" />
        </mxCell>
        <mxCell id="HAnDy_ZdzhN_IxBXXIQJ-19" value="" style="endArrow=none;html=1;rounded=0;exitX=1;exitY=0.5;exitDx=0;exitDy=0;" parent="1" source="HAnDy_ZdzhN_IxBXXIQJ-18" edge="1">
          <mxGeometry width="50" height="50" relative="1" as="geometry">
            <mxPoint x="-10" y="1180" as="sourcePoint" />
            <mxPoint x="460" y="1000" as="targetPoint" />
          </mxGeometry>
        </mxCell>
        <mxCell id="RzeuXs57eXydCvDoj_Bh-1" value="&amp;lt;include&amp;gt;" style="html=1;labelBackgroundColor=#ffffff;startArrow=none;startFill=0;startSize=6;endArrow=classic;endFill=1;endSize=6;jettySize=auto;orthogonalLoop=1;strokeWidth=1;dashed=1;fontSize=14;rounded=0;exitX=0;exitY=0.5;exitDx=0;exitDy=0;entryX=1;entryY=0;entryDx=0;entryDy=0;" parent="1" source="zXD2SMm_LBqsyfpl97Um-2" target="kPocjmI_fxd54AzkwtQ3-4" edge="1">
          <mxGeometry x="-0.2052" y="5" width="60" height="60" relative="1" as="geometry">
            <mxPoint x="457.5" y="930" as="sourcePoint" />
            <mxPoint x="517.5" y="870" as="targetPoint" />
            <mxPoint as="offset" />
          </mxGeometry>
        </mxCell>
        <mxCell id="RzeuXs57eXydCvDoj_Bh-2" value="&amp;lt;include&amp;gt;" style="html=1;labelBackgroundColor=#ffffff;startArrow=none;startFill=0;startSize=6;endArrow=classic;endFill=1;endSize=6;jettySize=auto;orthogonalLoop=1;strokeWidth=1;dashed=1;fontSize=14;rounded=0;entryX=0.5;entryY=0;entryDx=0;entryDy=0;exitX=0.279;exitY=0.943;exitDx=0;exitDy=0;exitPerimeter=0;" parent="1" source="zXD2SMm_LBqsyfpl97Um-1" target="kPocjmI_fxd54AzkwtQ3-4" edge="1">
          <mxGeometry width="60" height="60" relative="1" as="geometry">
            <mxPoint x="630" y="960" as="sourcePoint" />
            <mxPoint x="430" y="890" as="targetPoint" />
          </mxGeometry>
        </mxCell>
        <mxCell id="RzeuXs57eXydCvDoj_Bh-4" value="&amp;lt;include&amp;gt;" style="html=1;labelBackgroundColor=#ffffff;startArrow=none;startFill=0;startSize=6;endArrow=classic;endFill=1;endSize=6;jettySize=auto;orthogonalLoop=1;strokeWidth=1;dashed=1;fontSize=14;rounded=0;entryX=1;entryY=0.5;entryDx=0;entryDy=0;" parent="1" source="zXD2SMm_LBqsyfpl97Um-4" target="kPocjmI_fxd54AzkwtQ3-4" edge="1">
          <mxGeometry width="60" height="60" relative="1" as="geometry">
            <mxPoint x="460" y="1250" as="sourcePoint" />
            <mxPoint x="550" y="1280" as="targetPoint" />
          </mxGeometry>
        </mxCell>
        <mxCell id="RzeuXs57eXydCvDoj_Bh-5" value="&amp;lt;include&amp;gt;" style="html=1;labelBackgroundColor=#ffffff;startArrow=none;startFill=0;startSize=6;endArrow=classic;endFill=1;endSize=6;jettySize=auto;orthogonalLoop=1;strokeWidth=1;dashed=1;fontSize=14;rounded=0;entryX=1;entryY=1;entryDx=0;entryDy=0;exitX=0;exitY=1;exitDx=0;exitDy=0;" parent="1" source="HAnDy_ZdzhN_IxBXXIQJ-1" target="kPocjmI_fxd54AzkwtQ3-4" edge="1">
          <mxGeometry x="-0.7624" width="60" height="60" relative="1" as="geometry">
            <mxPoint x="820" y="1120" as="sourcePoint" />
            <mxPoint x="795" y="1050" as="targetPoint" />
            <Array as="points">
              <mxPoint x="570" y="1070" />
              <mxPoint x="340" y="1080" />
            </Array>
            <mxPoint as="offset" />
          </mxGeometry>
        </mxCell>
        <mxCell id="RzeuXs57eXydCvDoj_Bh-6" value="&amp;lt;include&amp;gt;" style="html=1;labelBackgroundColor=#ffffff;startArrow=none;startFill=0;startSize=6;endArrow=classic;endFill=1;endSize=6;jettySize=auto;orthogonalLoop=1;strokeWidth=1;dashed=1;fontSize=14;rounded=0;entryX=0.5;entryY=1;entryDx=0;entryDy=0;" parent="1" source="zXD2SMm_LBqsyfpl97Um-3" edge="1">
          <mxGeometry width="60" height="60" relative="1" as="geometry">
            <mxPoint x="112.5" y="1280" as="sourcePoint" />
            <mxPoint x="-117.5" y="1100" as="targetPoint" />
            <Array as="points">
              <mxPoint x="62.5" y="1260" />
            </Array>
          </mxGeometry>
        </mxCell>
        <mxCell id="RzeuXs57eXydCvDoj_Bh-11" value="&amp;lt;include&amp;gt;" style="html=1;labelBackgroundColor=#ffffff;startArrow=none;startFill=0;startSize=6;endArrow=classic;endFill=1;endSize=6;jettySize=auto;orthogonalLoop=1;strokeWidth=1;dashed=1;fontSize=14;rounded=0;entryX=0;entryY=1;entryDx=0;entryDy=0;exitX=0.5;exitY=0;exitDx=0;exitDy=0;" parent="1" source="HAnDy_ZdzhN_IxBXXIQJ-18" target="kPocjmI_fxd54AzkwtQ3-4" edge="1">
          <mxGeometry width="60" height="60" relative="1" as="geometry">
            <mxPoint x="-270" y="1150" as="sourcePoint" />
            <mxPoint x="-210" y="1090" as="targetPoint" />
          </mxGeometry>
        </mxCell>
      </root>
    </mxGraphModel>
  </diagram>
</mxfile>
